<svg width="26" height="31" viewBox="0 0 26 31" fill="none" xmlns="http://www.w3.org/2000/svg">
<path d="M22.5124 20.3415L19.7721 23.6078L19.7902 12.1786C19.7902 11.5667 19.3748 11.0714 18.8616 11.0714C18.3502 11.0714 17.933 11.5667 17.933 12.1786L17.9149 23.53L15.2417 20.3415C14.8789 19.9102 14.2913 19.9102 13.9286 20.3415C13.5659 20.7741 13.5659 21.4758 13.9286 21.9083L17.7498 26.4644C18.0038 26.8655 18.4082 27.125 18.8616 27.125C19.2153 27.125 19.5363 26.9694 19.7811 26.7121C19.8174 26.6796 19.8518 26.6439 19.8845 26.605L23.8255 21.9083C24.1882 21.4758 24.1882 20.7741 23.8255 20.3415C23.4628 19.9102 22.8752 19.9102 22.5124 20.3415Z" fill="black"/>
<path d="M1.85715 22.9181C1.85715 23.4068 2.18904 23.8036 2.60073 23.8036H9.93498C10.1127 23.8036 10.2759 23.7301 10.4029 23.6068C10.5716 23.4446 10.6786 23.196 10.6786 22.9181V22.4748C10.6786 21.9861 10.3467 21.5893 9.93498 21.5893H2.60073C2.38491 21.5893 2.19086 21.6975 2.05483 21.8715C1.97866 21.9677 1.92244 22.0845 1.8898 22.2143C1.86803 22.2964 1.85715 22.384 1.85715 22.4748V22.9181Z" fill="black"/>
<path d="M2.32687 14.8838C2.25615 14.8502 2.19086 14.8048 2.13282 14.7486C1.96415 14.5864 1.85715 14.3388 1.85715 14.0609V13.6176C1.85715 13.1289 2.18904 12.7321 2.60073 12.7321H14.1135C14.5253 12.7321 14.8571 13.1289 14.8571 13.6176V14.0609C14.8571 14.5496 14.5253 14.9464 14.1135 14.9464H2.60073C2.50461 14.9464 2.41212 14.9237 2.32687 14.8838Z" fill="black"/>
<path d="M1.92607 5.57464C1.88253 5.46219 1.85715 5.33677 1.85715 5.20379V4.76049C1.85715 4.4783 1.96778 4.22639 2.14007 4.06421C2.26703 3.94528 2.42662 3.875 2.60073 3.875H22.4707C22.8824 3.875 23.2143 4.2718 23.2143 4.76049V5.20379C23.2143 5.69249 22.8824 6.08929 22.4707 6.08929H2.60073C2.30149 6.08929 2.04395 5.87845 1.92607 5.57464Z" fill="black"/>
</svg>
